<svg width="4404" height="757.0000000000001" xmlns="http://www.w3.org/2000/svg" fill="none">

 <g>
  <title>Layer 1</title>
  <path id="svg_1" fill="#2191ff" d="m631.129,317.168c78.465,-11.131 78.822,-138.176 -2.08,-149.14l-167.978,0.063l-6.28,4.222l-98.964,163.568l-10.313,12.77l-145.926,-244.743c-0.609,-4.264 0.168,-2.689 3.046,-3.067c5.565,-0.756 15.962,-1.197 20.12,3.025l97.557,162.854l101.254,-165.921l205.363,0.063c148.719,11.195 176.233,220.779 43.622,272.509c-19.805,7.729 -30.621,6.343 -49.944,8.905c-2.919,0.378 -3.633,-1.134 -3.087,3.108l130.195,185.915l-80.86,0l-177.472,-254.131l141.768,0l-0.021,0zm-103.963,21.003l18.251,24.804c52.759,-0.715 105.307,10.06 148.656,-26.968c79.663,-68.069 40.661,-204.187 -64.961,-214.247l-198.222,0.42l-98.712,164.912l12.307,23.775l4.306,-1.302l96.801,-162.161l179.215,-0.315c85.291,8.086 116.123,117.509 49.419,171.171c-9.052,7.288 -34.066,19.932 -45.177,19.932l-101.862,0l-0.021,-0.021zm180.622,214.226l-117.636,-169.05c-4.536,-1.617 -31.524,-2.751 -31.44,2.079l118.622,166.971l30.454,0z"/>
  <path id="svg_2" fill="#2191ff" d="m112.364,100.841l226.828,375.947l170.184,-283.451c5.755,-7.75 17.684,-3.151 26.19,-4.243l-100.455,166.614l129.859,215.591l-21.864,1.765l-119.904,-197.026l-130.237,216.306l-292.965,-491.482l112.364,0l0,-0.021zm-10.501,21.003l-66.1586,0l254.1526,432.653l36.901,-58.933l-224.895,-373.72z"/>
  <path id="svg_3" fill="#2191ff" d="m1565.49,151.418c40.34,0 75.99,10.625 106.97,31.875c30.97,20.89 53.48,46.822 67.53,77.797l-55.11,21.61c-10.8,-22.69 -26.83,-41.059 -48.08,-55.106c-20.89,-14.047 -44.66,-21.069 -71.31,-21.069c-38.54,0 -70.96,13.506 -97.25,40.518c-25.93,26.653 -38.9,59.609 -38.9,98.867c0,39.259 12.97,72.395 38.9,99.408c26.29,26.652 58.71,39.978 97.25,39.978c26.65,0 50.42,-7.023 71.31,-21.069c21.25,-14.047 37.28,-32.416 48.08,-55.107l55.11,21.611c-14.05,30.974 -36.56,57.087 -67.53,78.337c-30.98,20.889 -66.63,31.335 -106.97,31.335c-55.83,0 -102.83,-18.729 -141.01,-56.187c-37.82,-37.458 -56.73,-83.56 -56.73,-138.306c0,-54.745 18.91,-100.848 56.73,-138.305c38.18,-37.458 85.18,-56.187 141.01,-56.187zm684.29,0c55.46,0 102.1,18.729 139.92,56.187c38.18,37.457 57.27,83.56 57.27,138.305c0,54.746 -19.09,100.848 -57.27,138.306c-37.82,37.458 -84.46,56.187 -139.92,56.187c-55.83,0 -102.83,-18.729 -141.01,-56.187c-37.82,-37.458 -56.73,-83.56 -56.73,-138.306c0,-54.745 18.91,-100.848 56.73,-138.305c38.18,-37.458 85.18,-56.187 141.01,-56.187zm-1213.1,365.753l121.02,-360.35l60.51,0l-131.28,378.179l-103.734,0l-131.282,-378.179l63.75,0l121.016,360.35zm278.39,17.829l-59.97,0l0,-378.179l59.97,0l0,378.179zm732.64,-324.694l-122.1,0l0,324.694l-59.42,0l0,-324.694l-122.1,0l0,-53.485l303.62,0l0,53.485zm561.51,0l-49.56,0l0,123.179l49.56,0l0,54.565l-49.56,0l0,146.95l-59.97,0l0,-378.179l109.53,0l0,53.485zm-359.44,-3.781c-38.54,0 -70.96,13.506 -97.25,40.518c-25.93,26.653 -38.9,59.609 -38.9,98.867c0,39.259 12.97,72.395 38.9,99.408c26.29,26.652 58.71,39.978 97.25,39.978c38.53,0 70.77,-13.326 96.7,-39.978c25.93,-27.013 38.9,-60.149 38.9,-99.408c0,-39.258 -12.97,-72.214 -38.9,-98.867c-25.93,-27.012 -58.17,-40.518 -96.7,-40.518z"/>
  <path id="svg_4" fill="#2191ff" d="m2788.61,361.521l117.24,167.479l-37.28,0l-116.7,-167.479l-82.11,0l0,167.479l-30.26,0l0,-378.179l146.41,0c32.42,0 59.07,10.085 79.96,30.254c21.25,20.17 31.87,45.202 31.87,75.096c0,29.534 -10.26,54.386 -30.79,74.555c-20.53,20.17 -46.64,30.434 -78.34,30.795zm-2.7,-182.607l-116.15,0l0,154.513l116.15,0c23.41,0 42.68,-7.383 57.81,-22.15c15.49,-15.127 23.23,-33.676 23.23,-55.647c0,-21.97 -7.74,-40.159 -23.23,-54.565c-15.13,-14.767 -34.4,-22.151 -57.81,-22.151zm207.09,299.302c-37.46,-37.458 -56.19,-83.56 -56.19,-138.306c0,-54.746 18.73,-100.847 56.19,-138.305c37.46,-37.458 83.74,-56.187 138.84,-56.187c55.11,0 101.39,18.729 138.85,56.187c37.46,37.458 56.19,83.559 56.19,138.305c0,54.746 -18.73,100.848 -56.19,138.306c-37.46,37.458 -83.74,56.187 -138.85,56.187c-55.1,0 -101.38,-18.729 -138.84,-56.187zm22.15,-256.081c-31.7,31.695 -47.54,70.953 -47.54,117.775c0,46.823 15.84,86.261 47.54,118.316c31.69,31.695 70.59,47.543 116.69,47.543c46.1,0 85,-15.848 116.7,-47.543c31.69,-32.055 47.54,-71.493 47.54,-118.316c0,-46.822 -15.85,-86.08 -47.54,-117.775c-31.7,-32.056 -70.6,-48.083 -116.7,-48.083c-46.1,0 -85,16.027 -116.69,48.083zm524.35,105.35l218.81,0c3.6,58.707 -13.51,107.871 -51.33,147.489c-37.45,39.619 -83.38,59.429 -137.76,59.429c-55.11,0 -101.39,-18.729 -138.85,-56.187c-37.46,-37.458 -56.18,-83.56 -56.18,-138.306c0,-54.746 18.72,-100.847 56.18,-138.305c37.46,-37.458 83.74,-56.187 138.85,-56.187c39.26,0 74.01,10.445 104.27,31.335c30.61,20.53 53.12,46.462 67.53,77.797l-28.09,11.886c-12.61,-27.734 -31.7,-50.064 -57.27,-66.992c-25.57,-16.928 -54.39,-25.392 -86.44,-25.392c-46.1,0 -85,16.027 -116.7,48.083c-31.69,31.695 -47.54,70.953 -47.54,117.775c0,46.823 15.85,86.261 47.54,118.316c31.7,31.695 70.6,47.543 116.7,47.543c43.58,0 80.14,-14.587 109.67,-43.761c29.53,-29.174 45.38,-64.65 47.54,-106.43l-186.93,0l0,-28.093zm513.44,201.515l-225.83,0l0,-378.179l225.83,0l0,28.093l-195.57,0l0,146.95l190.17,0l0,28.093l-190.17,0l0,146.95l195.57,0l0,28.093zm212.41,-167.479l117.23,167.479l-37.28,0l-116.69,-167.479l-82.12,0l0,167.479l-30.25,0l0,-378.179l146.41,0c32.41,0 59.06,10.085 79.95,30.254c21.25,20.17 31.88,45.202 31.88,75.096c0,29.534 -10.27,54.386 -30.8,74.555c-20.53,20.17 -46.64,30.434 -78.33,30.795zm-2.7,-182.607l-116.16,0l0,154.513l116.16,0c23.41,0 42.68,-7.383 57.8,-22.15c15.49,-15.127 23.23,-33.676 23.23,-55.647c0,-21.97 -7.74,-40.159 -23.23,-54.565c-15.12,-14.767 -34.39,-22.151 -57.8,-22.151z"/>
 </g>
</svg>