<svg width="4404" height="757" viewBox="0 0 4404 757" fill="none" xmlns="http://www.w3.org/2000/svg">
<path d="M631.129 317.168C709.594 306.036 709.951 178.992 629.049 168.028L461.071 168.091L454.791 172.313L355.827 335.881L345.514 348.651L199.588 103.907C198.979 99.6439 199.756 101.219 202.634 100.841C208.199 100.085 218.596 99.6439 222.754 103.865L320.311 266.72L421.565 100.799L626.928 100.862C775.647 112.056 803.161 321.641 670.55 373.371C650.745 381.1 639.929 379.714 620.606 382.276C617.687 382.654 616.973 381.142 617.519 385.384L747.714 571.299H666.854L489.382 317.168H631.15H631.129ZM527.166 338.17L545.417 362.975C598.176 362.26 650.724 373.035 694.073 336.007C773.736 267.938 734.734 131.82 629.112 121.76L430.89 122.18L332.178 287.092L344.485 310.867L348.791 309.565L445.592 147.404L624.807 147.089C710.098 155.175 740.93 264.598 674.226 318.26C665.174 325.548 640.16 338.191 629.049 338.191H527.187L527.166 338.17ZM707.788 552.397L590.152 383.347C585.616 381.73 558.628 380.596 558.712 385.426L677.334 552.397H707.788Z" fill="#5C8BFF"/>
<path d="M112.364 100.841L339.192 476.788L509.376 193.337C515.131 185.587 527.06 190.186 535.566 189.094L435.111 355.708L564.97 571.299L543.106 573.063L423.202 376.038L292.965 592.344L0 100.862H112.364V100.841ZM101.863 121.844H35.7044L289.857 554.497L326.758 495.564L101.863 121.844Z" fill="#5C8BFF"/>
<path d="M1565.49 151.418C1605.83 151.418 1641.48 162.043 1672.46 183.293C1703.43 204.183 1725.94 230.115 1739.99 261.09L1684.88 282.7C1674.08 260.01 1658.05 241.641 1636.8 227.594C1615.91 213.547 1592.14 206.525 1565.49 206.525C1526.95 206.525 1494.53 220.031 1468.24 247.043C1442.31 273.696 1429.34 306.652 1429.34 345.91C1429.34 385.169 1442.31 418.305 1468.24 445.318C1494.53 471.97 1526.95 485.296 1565.49 485.296C1592.14 485.296 1615.91 478.273 1636.8 464.227C1658.05 450.18 1674.08 431.811 1684.88 409.12L1739.99 430.731C1725.94 461.705 1703.43 487.818 1672.46 509.068C1641.48 529.957 1605.83 540.403 1565.49 540.403C1509.66 540.403 1462.66 521.674 1424.48 484.216C1386.66 446.758 1367.75 400.656 1367.75 345.91C1367.75 291.165 1386.66 245.062 1424.48 207.605C1462.66 170.147 1509.66 151.418 1565.49 151.418ZM2249.78 151.418C2305.24 151.418 2351.88 170.147 2389.7 207.605C2427.88 245.062 2446.97 291.164 2446.97 345.91C2446.97 400.656 2427.88 446.758 2389.7 484.216C2351.88 521.674 2305.24 540.403 2249.78 540.403C2193.95 540.403 2146.95 521.674 2108.77 484.216C2070.95 446.758 2052.04 400.656 2052.04 345.91C2052.04 291.165 2070.95 245.062 2108.77 207.605C2146.95 170.147 2193.95 151.418 2249.78 151.418ZM1036.68 517.171L1157.7 156.821H1218.21L1086.93 535H983.196L851.914 156.821H915.664L1036.68 517.171ZM1315.07 535H1255.1V156.821H1315.07V535ZM2047.71 210.306H1925.61V535H1866.19V210.306H1744.09V156.821H2047.71V210.306ZM2609.22 210.306H2559.66V333.485H2609.22V388.05H2559.66V535H2499.69V156.821H2609.22V210.306ZM2249.78 206.525C2211.24 206.525 2178.82 220.03 2152.53 247.043C2126.6 273.696 2113.63 306.652 2113.63 345.91C2113.63 385.169 2126.6 418.305 2152.53 445.318C2178.82 471.97 2211.24 485.296 2249.78 485.296C2288.31 485.296 2320.55 471.97 2346.48 445.318C2372.41 418.305 2385.38 385.169 2385.38 345.91C2385.38 306.652 2372.41 273.696 2346.48 247.043C2320.55 220.031 2288.31 206.525 2249.78 206.525Z" fill="#5C8BFF"/>
<path d="M2788.61 361.521L2905.85 529H2868.57L2751.87 361.521H2669.76V529H2639.5V150.821H2785.91C2818.33 150.821 2844.98 160.906 2865.87 181.075C2887.12 201.245 2897.74 226.277 2897.74 256.171C2897.74 285.705 2887.48 310.557 2866.95 330.726C2846.42 350.896 2820.31 361.16 2788.61 361.521ZM2785.91 178.914H2669.76V333.427H2785.91C2809.32 333.427 2828.59 326.044 2843.72 311.277C2859.21 296.15 2866.95 277.601 2866.95 255.63C2866.95 233.66 2859.21 215.471 2843.72 201.065C2828.59 186.298 2809.32 178.914 2785.91 178.914ZM2993 478.216C2955.54 440.758 2936.81 394.656 2936.81 339.91C2936.81 285.164 2955.54 239.063 2993 201.605C3030.46 164.147 3076.74 145.418 3131.84 145.418C3186.95 145.418 3233.23 164.147 3270.69 201.605C3308.15 239.063 3326.88 285.164 3326.88 339.91C3326.88 394.656 3308.15 440.758 3270.69 478.216C3233.23 515.674 3186.95 534.403 3131.84 534.403C3076.74 534.403 3030.46 515.674 2993 478.216ZM3015.15 222.135C2983.45 253.83 2967.61 293.088 2967.61 339.91C2967.61 386.733 2983.45 426.171 3015.15 458.226C3046.84 489.921 3085.74 505.769 3131.84 505.769C3177.94 505.769 3216.84 489.921 3248.54 458.226C3280.23 426.171 3296.08 386.733 3296.08 339.91C3296.08 293.088 3280.23 253.83 3248.54 222.135C3216.84 190.079 3177.94 174.052 3131.84 174.052C3085.74 174.052 3046.84 190.079 3015.15 222.135ZM3539.5 327.485H3758.31C3761.91 386.192 3744.8 435.356 3706.98 474.974C3669.53 514.593 3623.6 534.403 3569.22 534.403C3514.11 534.403 3467.83 515.674 3430.37 478.216C3392.91 440.758 3374.19 394.656 3374.19 339.91C3374.19 285.164 3392.91 239.063 3430.37 201.605C3467.83 164.147 3514.11 145.418 3569.22 145.418C3608.48 145.418 3643.23 155.863 3673.49 176.753C3704.1 197.283 3726.61 223.215 3741.02 254.55L3712.93 266.436C3700.32 238.702 3681.23 216.372 3655.66 199.444C3630.09 182.516 3601.27 174.052 3569.22 174.052C3523.12 174.052 3484.22 190.079 3452.52 222.135C3420.83 253.83 3404.98 293.088 3404.98 339.91C3404.98 386.733 3420.83 426.171 3452.52 458.226C3484.22 489.921 3523.12 505.769 3569.22 505.769C3612.8 505.769 3649.36 491.182 3678.89 462.008C3708.42 432.834 3724.27 397.358 3726.43 355.578H3539.5V327.485ZM4052.94 529H3827.11V150.821H4052.94V178.914H3857.37V325.864H4047.54V353.957H3857.37V500.907H4052.94V529ZM4265.35 361.521L4382.58 529H4345.3L4228.61 361.521H4146.49V529H4116.24V150.821H4262.65C4295.06 150.821 4321.71 160.906 4342.6 181.075C4363.85 201.245 4374.48 226.277 4374.48 256.171C4374.48 285.705 4364.21 310.557 4343.68 330.726C4323.15 350.896 4297.04 361.16 4265.35 361.521ZM4262.65 178.914H4146.49V333.427H4262.65C4286.06 333.427 4305.33 326.044 4320.45 311.277C4335.94 296.15 4343.68 277.601 4343.68 255.63C4343.68 233.66 4335.94 215.471 4320.45 201.065C4305.33 186.298 4286.06 178.914 4262.65 178.914Z" fill="#5C8BFF"/>
</svg>
