<svg width="663" height="431" viewBox="0 0 663 431" fill="none" xmlns="http://www.w3.org/2000/svg">
<path d="M552.789 189.906C621.515 180.156 621.828 68.8809 550.968 59.2784L403.84 59.3335L398.339 63.0311L311.659 206.296L302.627 217.481L174.814 3.11644C174.28 -0.61788 174.961 0.76181 177.481 0.430688C182.356 -0.231556 191.462 -0.61786 195.104 3.07967L280.552 145.72L369.237 0.393917L549.11 0.449101C679.37 10.254 703.468 193.824 587.318 239.133C569.971 245.902 560.497 244.688 543.573 246.932C541.016 247.264 540.39 245.939 540.869 249.655L654.903 412.493H584.08L428.637 189.906H552.807H552.789ZM461.731 208.302L477.716 230.027C523.926 229.401 569.952 238.838 607.921 206.407C677.695 146.786 643.535 27.5643 551.023 18.7527L377.405 19.1207L290.945 163.563L301.725 184.387L305.496 183.247L390.282 41.2139L547.252 40.9379C621.957 48.0202 648.962 143.862 590.537 190.862C582.608 197.246 560.699 208.32 550.968 208.32H461.749L461.731 208.302ZM619.933 395.937L516.899 247.871C512.926 246.454 489.287 245.461 489.361 249.692L593.26 395.937H619.933Z" fill="#5C8BFF"/>
<path d="M98.4166 0.430664L297.09 329.713L446.15 81.4451C451.19 74.6571 461.639 78.6857 469.089 77.7292L381.102 223.662L494.843 412.493L475.693 414.038L370.672 241.469L256.601 430.926L-0.00012207 0.449078H98.4166V0.430664ZM89.2188 18.8263H31.2725L253.878 397.777L286.199 346.158L89.2188 18.8263Z" fill="#5C8BFF"/>
</svg>
