<svg width="663" height="431" xmlns="http://www.w3.org/2000/svg" fill="none">

 <g>
  <title>Layer 1</title>
  <path id="svg_1" fill="#1959b3" d="m552.789,189.906c68.726,-9.75 69.039,-121.0251 -1.821,-130.6276l-147.128,0.0551l-5.501,3.6976l-86.68,143.2649l-9.032,11.185l-127.813,-214.36456c-0.534,-3.73432 0.147,-2.35463 2.667,-2.68575c4.875,-0.66225 13.981,-1.04855 17.623,2.64898l85.448,142.64033l88.685,-145.32608l179.873,0.05518c130.26,9.8049 154.358,193.3749 38.208,238.6839c-17.347,6.769 -26.821,5.555 -43.745,7.799c-2.557,0.332 -3.183,-0.993 -2.704,2.723l114.034,162.838l-70.823,0l-155.443,-222.587l124.17,0l-0.018,0zm-91.058,18.396l15.985,21.725c46.21,-0.626 92.236,8.811 130.205,-23.62c69.774,-59.621 35.614,-178.8427 -56.898,-187.6543l-173.618,0.368l-86.46,144.4423l10.78,20.824l3.771,-1.14l84.786,-142.0331l156.97,-0.276c74.705,7.0823 101.71,102.9241 43.285,149.9241c-7.929,6.384 -29.838,17.458 -39.569,17.458l-89.219,0l-0.018,-0.018zm158.202,187.635l-103.034,-148.066c-3.973,-1.417 -27.612,-2.41 -27.538,1.821l103.899,146.245l26.673,0z"/>
  <path id="svg_2" fill="#1959b3" d="m98.4166,0.43066l198.6734,329.28234l149.06,-248.2679c5.04,-6.788 15.489,-2.7594 22.939,-3.7159l-87.987,145.9328l113.741,188.831l-19.15,1.545l-105.021,-172.569l-114.071,189.457l-256.60112,-430.47692l98.41672,0l0,-0.01842zm-9.1978,18.39564l-57.9463,0l222.6055,378.9507l32.321,-51.619l-196.9802,-327.3317z"/>
 </g>
</svg>