<?xml version="1.0" standalone="no"?>
<!DOCTYPE svg PUBLIC "-//W3C//DTD SVG 20010904//EN"
 "http://www.w3.org/TR/2001/REC-SVG-20010904/DTD/svg10.dtd">
<svg version="1.0" xmlns="http://www.w3.org/2000/svg"
 width="400.000000pt" height="400.000000pt" viewBox="0 0 400.000000 400.000000"
 preserveAspectRatio="xMidYMid meet">

<g transform="translate(0.000000,400.000000) scale(0.100000,-0.100000)"
fill="#000000" stroke="none">
<path d="M0 2000 l0 -2000 2000 0 2000 0 0 2000 0 2000 -2000 0 -2000 0 0
-2000z m3085 1091 c48 -22 69 -44 90 -94 20 -47 19 -110 -1 -150 -36 -69 -299
-503 -318 -525 -11 -13 -36 -33 -56 -45 -32 -20 -53 -22 -221 -27 l-186 -5 73
-165 c79 -179 89 -213 80 -264 -8 -39 -302 -536 -345 -581 -45 -48 -85 -55
-320 -55 l-211 0 -104 -108 c-57 -59 -123 -129 -147 -156 -74 -81 -143 -104
-215 -70 -44 21 -55 40 -158 276 -121 277 -125 239 65 557 l151 253 -101 229
c-109 248 -120 293 -85 362 46 90 301 506 328 535 17 18 44 37 61 41 16 5 379
10 805 10 732 1 777 0 815 -18z"/>
<path d="M1492 2943 c-54 -78 -292 -486 -292 -502 0 -41 10 -41 498 -39 l470
3 -69 160 c-39 88 -77 176 -85 195 -8 19 -32 73 -53 120 l-38 85 -205 3 -206
2 -20 -27z"/>
<path d="M2085 2938 c8 -18 63 -145 124 -283 l109 -250 212 0 213 0 155 258
c141 235 154 260 144 282 l-12 25 -479 0 -480 0 14 -32z"/>
<path d="M1283 2238 c3 -7 24 -57 48 -110 l42 -98 473 0 c260 0 475 3 477 8 2
4 -15 52 -39 107 l-43 100 -482 3 c-384 2 -480 0 -476 -10z"/>
<path d="M1456 1843 c14 -32 71 -163 127 -290 l101 -233 202 0 203 0 24 33
c41 53 297 486 297 501 0 7 -8 20 -18 29 -17 15 -65 17 -490 17 l-472 0 26
-57z"/>
<path d="M1318 1750 c-77 -120 -218 -369 -218 -386 0 -39 33 -45 237 -42 l192
3 -78 180 c-42 99 -86 200 -97 225 l-20 45 -16 -25z"/>
<path d="M1180 1177 c0 -8 82 -193 88 -199 4 -3 51 40 105 98 l99 104 -146 0
c-80 0 -146 -1 -146 -3z"/>
</g>
</svg>
